HIERARCHY
ROOT mixamorig:Hips
{
	OFFSET 0.000000 104.274902 0.000000
	CHANNELS 6 Xposition Yposition Zposition Xrotation Yrotation Zrotation
	JOINT mixamorig:Spine
	{
		OFFSET 0.000000 10.181549 0.131524
		CHANNELS 6 Xposition Yposition Zposition Xrotation Yrotation Zrotation
		JOINT mixamorig:Spine1
		{
			OFFSET 0.000000 9.893990 -1.470706
			CHANNELS 3 Xrotation Yrotation Zrotation
			JOINT mixamorig:Spine2
			{
				OFFSET 0.000000 9.220787 -1.370637
				CHANNELS 3 Xrotation Yrotation Zrotation
				JOINT mixamorig:Neck
				{
					OFFSET 0.000000 16.740372 -2.049022
					CHANNELS 6 Xposition Yposition Zposition Xrotation Yrotation Zrotation
					JOINT mixamorig:Head
					{
						OFFSET 0.000000 9.617859 1.684976
						CHANNELS 6 Xposition Yposition Zposition Xrotation Yrotation Zrotation
						JOINT mixamorig:HeadTop_End
						{
							OFFSET 0.000000 22.037384 7.501072
							CHANNELS 6 Xposition Yposition Zposition Xrotation Yrotation Zrotation
							End Site
							{
								OFFSET 0.000000 23.106567 -2.828246
							}
						}
					}
				}
				JOINT mixamorig:RightShoulder
				{
					OFFSET -4.570000 11.014877 -2.160840
					CHANNELS 6 Xposition Yposition Zposition Xrotation Yrotation Zrotation
					JOINT mixamorig:RightArm
					{
						OFFSET -10.592867 -0.524796 -2.232105
						CHANNELS 3 Xrotation Yrotation Zrotation
						JOINT mixamorig:RightForeArm
						{
							OFFSET -27.841497 0.000000 -0.000002
							CHANNELS 3 Xrotation Yrotation Zrotation
							JOINT mixamorig:RightHand
							{
								OFFSET -28.328812 0.000000 -0.000001
								CHANNELS 3 Xrotation Yrotation Zrotation
								JOINT mixamorig:RightHandThumb1
								{
									OFFSET -2.464798 -1.573990 2.681911
									CHANNELS 6 Xposition Yposition Zposition Xrotation Yrotation Zrotation
									JOINT mixamorig:RightHandThumb2
									{
										OFFSET -3.244781 -1.873383 1.873376
										CHANNELS 3 Xrotation Yrotation Zrotation
										JOINT mixamorig:RightHandThumb3
										{
											OFFSET -2.646263 -1.527817 1.527818
											CHANNELS 6 Xposition Yposition Zposition Xrotation Yrotation Zrotation
											JOINT mixamorig:RightHandThumb4
											{
												OFFSET -1.994591 -1.151581 1.151575
												CHANNELS 6 Xposition Yposition Zposition Xrotation Yrotation Zrotation
												End Site
												{
													OFFSET -1.860176 -1.142715 1.365483
												}
											}
										}
									}
								}
								JOINT mixamorig:RightHandIndex1
								{
									OFFSET -9.108299 -0.517883 2.259803
									CHANNELS 6 Xposition Yposition Zposition Xrotation Yrotation Zrotation
									JOINT mixamorig:RightHandIndex2
									{
										OFFSET -3.699997 0.000000 0.000000
										CHANNELS 3 Xrotation Yrotation Zrotation
										JOINT mixamorig:RightHandIndex3
										{
											OFFSET -2.850006 0.000000 0.000000
											CHANNELS 3 Xrotation Yrotation Zrotation
											JOINT mixamorig:RightHandIndex4
											{
												OFFSET -2.772194 0.000000 0.000000
												CHANNELS 3 Xrotation Yrotation Zrotation
												End Site
												{
													OFFSET -2.772202 0.000000 -0.000484
												}
											}
										}
									}
								}
								JOINT mixamorig:RightHandMiddle1
								{
									OFFSET -9.532501 0.000000 -0.000000
									CHANNELS 6 Xposition Yposition Zposition Xrotation Yrotation Zrotation
									JOINT mixamorig:RightHandMiddle2
									{
										OFFSET -3.699997 0.000000 0.000000
										CHANNELS 3 Xrotation Yrotation Zrotation
										JOINT mixamorig:RightHandMiddle3
										{
											OFFSET -2.949997 0.000000 0.000000
											CHANNELS 3 Xrotation Yrotation Zrotation
											JOINT mixamorig:RightHandMiddle4
											{
												OFFSET -2.946594 0.000000 0.000000
												CHANNELS 3 Xrotation Yrotation Zrotation
												End Site
												{
													OFFSET -2.946602 0.000000 -0.000982
												}
											}
										}
									}
								}
								JOINT mixamorig:RightHandRing1
								{
									OFFSET -9.103600 -0.043106 -1.865100
									CHANNELS 6 Xposition Yposition Zposition Xrotation Yrotation Zrotation
									JOINT mixamorig:RightHandRing2
									{
										OFFSET -3.379303 0.000000 0.000000
										CHANNELS 3 Xrotation Yrotation Zrotation
										JOINT mixamorig:RightHandRing3
										{
											OFFSET -2.889694 0.000000 0.000000
											CHANNELS 3 Xrotation Yrotation Zrotation
											JOINT mixamorig:RightHandRing4
											{
												OFFSET -2.638802 0.000000 0.000000
												CHANNELS 3 Xrotation Yrotation Zrotation
												End Site
												{
													OFFSET -2.638802 0.000000 0.004218
												}
											}
										}
									}
								}
								JOINT mixamorig:RightHandPinky1
								{
									OFFSET -8.076698 -0.486725 -3.806299
									CHANNELS 6 Xposition Yposition Zposition Xrotation Yrotation Zrotation
									JOINT mixamorig:RightHandPinky2
									{
										OFFSET -3.600006 0.000000 0.000000
										CHANNELS 3 Xrotation Yrotation Zrotation
										JOINT mixamorig:RightHandPinky3
										{
											OFFSET -2.099998 0.000000 0.000000
											CHANNELS 3 Xrotation Yrotation Zrotation
											JOINT mixamorig:RightHandPinky4
											{
												OFFSET -2.115791 0.000000 0.000000
												CHANNELS 3 Xrotation Yrotation Zrotation
												End Site
												{
													OFFSET -2.115799 0.000000 0.000174
												}
											}
										}
									}
								}
							}
						}
					}
				}
				JOINT mixamorig:LeftShoulder
				{
					OFFSET 4.570400 11.014679 -2.160816
					CHANNELS 6 Xposition Yposition Zposition Xrotation Yrotation Zrotation
					JOINT mixamorig:LeftArm
					{
						OFFSET 10.592373 -0.524597 -2.232116
						CHANNELS 3 Xrotation Yrotation Zrotation
						JOINT mixamorig:LeftForeArm
						{
							OFFSET 27.841488 0.000000 0.000001
							CHANNELS 3 Xrotation Yrotation Zrotation
							JOINT mixamorig:LeftHand
							{
								OFFSET 28.328808 0.000000 -0.000000
								CHANNELS 3 Xrotation Yrotation Zrotation
								JOINT mixamorig:LeftHandThumb1
								{
									OFFSET 2.466103 -1.576202 2.681698
									CHANNELS 6 Xposition Yposition Zposition Xrotation Yrotation Zrotation
									JOINT mixamorig:LeftHandThumb2
									{
										OFFSET 3.243317 -1.872528 1.872530
										CHANNELS 3 Xrotation Yrotation Zrotation
										JOINT mixamorig:LeftHandThumb3
										{
											OFFSET 2.647881 -1.528763 1.528754
											CHANNELS 6 Xposition Yposition Zposition Xrotation Yrotation Zrotation
											JOINT mixamorig:LeftHandThumb4
											{
												OFFSET 1.998924 -1.154083 1.154080
												CHANNELS 6 Xposition Yposition Zposition Xrotation Yrotation Zrotation
												End Site
												{
													OFFSET 1.884041 -1.149155 1.337651
												}
											}
										}
									}
								}
								JOINT mixamorig:LeftHandIndex1
								{
									OFFSET 9.109299 -0.518005 2.259900
									CHANNELS 6 Xposition Yposition Zposition Xrotation Yrotation Zrotation
									JOINT mixamorig:LeftHandIndex2
									{
										OFFSET 3.699997 0.000000 0.000000
										CHANNELS 3 Xrotation Yrotation Zrotation
										JOINT mixamorig:LeftHandIndex3
										{
											OFFSET 2.850006 0.000000 0.000000
											CHANNELS 3 Xrotation Yrotation Zrotation
											JOINT mixamorig:LeftHandIndex4
											{
												OFFSET 2.774895 0.000000 0.000000
												CHANNELS 3 Xrotation Yrotation Zrotation
												End Site
												{
													OFFSET 2.774902 0.000000 -0.000072
												}
											}
										}
									}
								}
								JOINT mixamorig:LeftHandMiddle1
								{
									OFFSET 9.533401 0.000000 0.000000
									CHANNELS 6 Xposition Yposition Zposition Xrotation Yrotation Zrotation
									JOINT mixamorig:LeftHandMiddle2
									{
										OFFSET 3.699997 0.000000 0.000000
										CHANNELS 3 Xrotation Yrotation Zrotation
										JOINT mixamorig:LeftHandMiddle3
										{
											OFFSET 2.949997 0.000000 0.000000
											CHANNELS 3 Xrotation Yrotation Zrotation
											JOINT mixamorig:LeftHandMiddle4
											{
												OFFSET 2.952896 0.000000 0.000000
												CHANNELS 3 Xrotation Yrotation Zrotation
												End Site
												{
													OFFSET 2.952904 0.000000 0.000165
												}
											}
										}
									}
								}
								JOINT mixamorig:LeftHandRing1
								{
									OFFSET 9.104500 -0.042999 -1.865101
									CHANNELS 6 Xposition Yposition Zposition Xrotation Yrotation Zrotation
									JOINT mixamorig:LeftHandRing2
									{
										OFFSET 3.149994 0.000000 0.000000
										CHANNELS 3 Xrotation Yrotation Zrotation
										JOINT mixamorig:LeftHandRing3
										{
											OFFSET 2.950005 0.000000 0.000000
											CHANNELS 3 Xrotation Yrotation Zrotation
											JOINT mixamorig:LeftHandRing4
											{
												OFFSET 2.644302 0.000000 0.000000
												CHANNELS 3 Xrotation Yrotation Zrotation
												End Site
												{
													OFFSET 2.644302 0.000000 0.000083
												}
											}
										}
									}
								}
								JOINT mixamorig:LeftHandPinky1
								{
									OFFSET 8.077805 -0.486893 -3.806302
									CHANNELS 6 Xposition Yposition Zposition Xrotation Yrotation Zrotation
									JOINT mixamorig:LeftHandPinky2
									{
										OFFSET 3.600006 0.000000 0.000000
										CHANNELS 3 Xrotation Yrotation Zrotation
										JOINT mixamorig:LeftHandPinky3
										{
											OFFSET 2.099998 0.000000 0.000000
											CHANNELS 3 Xrotation Yrotation Zrotation
											JOINT mixamorig:LeftHandPinky4
											{
												OFFSET 2.125496 0.000000 0.000000
												CHANNELS 3 Xrotation Yrotation Zrotation
												End Site
												{
													OFFSET 2.125504 0.000000 -0.001254
												}
											}
										}
									}
								}
							}
						}
					}
				}
			}
		}
	}
	JOINT mixamorig:RightUpLeg
	{
		OFFSET -8.207800 -6.751701 -1.599544
		CHANNELS 6 Xposition Yposition Zposition Xrotation Yrotation Zrotation
		JOINT mixamorig:RightLeg
		{
			OFFSET 0.000004 -44.370152 0.345934
			CHANNELS 3 Xrotation Yrotation Zrotation
			JOINT mixamorig:RightFoot
			{
				OFFSET 0.000004 -44.423664 -3.043535
				CHANNELS 3 Xrotation Yrotation Zrotation
				JOINT mixamorig:RightToeBase
				{
					OFFSET 0.000001 -8.728691 10.710592
					CHANNELS 3 Xrotation Yrotation Zrotation
					JOINT mixamorig:RightToe_End
					{
						OFFSET 0.000000 -0.000665 9.278101
						CHANNELS 3 Xrotation Yrotation Zrotation
						End Site
						{
							OFFSET 0.000000 -0.000665 9.278103
						}
					}
				}
			}
		}
	}
	JOINT mixamorig:LeftUpLeg
	{
		OFFSET 8.207800 -6.751701 -1.599544
		CHANNELS 6 Xposition Yposition Zposition Xrotation Yrotation Zrotation
		JOINT mixamorig:LeftLeg
		{
			OFFSET 0.000004 -44.370037 0.346940
			CHANNELS 3 Xrotation Yrotation Zrotation
			JOINT mixamorig:LeftFoot
			{
				OFFSET 0.000004 -44.423611 -3.044388
				CHANNELS 3 Xrotation Yrotation Zrotation
				JOINT mixamorig:LeftToeBase
				{
					OFFSET 0.000001 -8.728690 10.710592
					CHANNELS 3 Xrotation Yrotation Zrotation
					JOINT mixamorig:LeftToe_End
					{
						OFFSET 0.000000 -0.000680 9.278101
						CHANNELS 3 Xrotation Yrotation Zrotation
						End Site
						{
							OFFSET 0.000000 -0.000680 9.278101
						}
					}
				}
			}
		}
	}
}
MOTION
Frames: 4
Frame Time: 0.033333
-2.008016 87.577202 5.342950 1.291090 -32.326012 4.345811 -0.000001 10.181563 0.131524 7.555578 11.125035 -5.564976 1.021836 3.544503 -2.164698 0.987180 3.532290 -2.135837 0.000001 16.740356 -2.049019 -5.828933 10.292426 3.478007 0.000002 9.617839 1.684974 4.093577 7.881987 5.518389 -0.000003 22.037399 7.501071 -0.000000 0.000000 0.000000 -4.570001 11.014854 -2.160841 0.753660 26.393656 -9.848291 -49.587402 19.062255 43.496875 -0.001624 87.939232 0.001783 -14.582695 10.583657 -12.245486 -2.464811 -1.574000 2.681921 -7.341122 13.749647 7.412336 9.855785 -44.489130 -3.903165 -2.646267 -1.527816 1.527822 -0.115756 -14.513028 -28.973891 -1.994614 -1.151584 1.151601 0.000004 -0.000006 0.000003 -9.108294 -0.517882 2.259801 -0.124379 -2.384770 45.108892 4.500584 -4.654525 88.071198 1.723207 -3.618365 50.920119 -0.000001 -0.000000 0.000002 -9.532501 0.000004 0.000007 -0.761637 -2.932897 39.031061 5.133877 -4.632752 95.881670 1.739745 -3.631691 51.181377 -0.000001 -0.000002 0.000005 -9.103600 -0.043086 -1.865090 0.154747 -4.068809 39.122682 6.509711 -4.273579 113.462843 2.549584 -4.153920 63.067351 0.000000 0.000000 0.000001 -8.076691 -0.486713 -3.806293 -4.198894 -8.025496 44.637779 4.252900 -4.639625 85.014811 6.935960 -4.062635 119.322257 0.000001 0.000001 -0.000000 4.570400 11.014693 -2.160816 0.092449 3.590751 -1.677913 -6.076183 -17.092909 -47.823963 0.000009 -128.112096 0.000011 -14.331117 -5.811189 19.796204 2.466095 -1.576198 2.681707 -6.141109 -11.690701 -6.761673 9.914078 42.595536 3.409824 2.647885 -1.528743 1.528753 -0.422767 8.108078 27.509092 1.998909 -1.154095 1.154073 -0.000002 -0.000003 -0.000000 9.109283 -0.518012 2.259909 0.255276 3.378309 -45.814341 5.654090 5.847932 -88.067482 2.162099 4.544921 -50.866365 -0.000000 0.000002 0.000000 9.533397 0.000004 0.000010 -0.461509 3.841664 -39.722679 6.450755 5.820543 -95.892837 2.182844 4.561663 -51.127719 -0.000000 0.000000 -0.000002 9.104507 -0.043004 -1.865094 0.469686 4.966906 -39.799434 8.181075 5.368809 -113.502977 3.200438 5.218258 -63.022968 0.000000 0.000002 -0.000000 8.077804 -0.486887 -3.806293 -3.762461 9.063783 -45.253797 5.342523 5.829174 -85.005311 8.716914 5.103537 -119.369181 0.000001 -0.000000 -0.000000 -8.207799 -6.751691 -1.599543 -24.685651 -16.731762 -30.729424 55.168596 -10.194269 -5.856929 -24.277585 -9.536536 23.095395 -1.421718 -0.000030 0.000003 0.000000 -0.000000 -0.000000 8.207801 -6.751687 -1.599541 -38.493696 8.276287 16.968709 61.340898 -9.549637 1.436384 -26.011346 -15.771699 -9.647168 -1.594199 0.000002 0.000003 0.000000 -0.000001 0.000000 
-1.314678 87.560753 5.240630 0.792378 -34.167120 4.307966 0.000001 10.181545 0.131522 8.310944 11.413454 -4.901482 1.341622 3.359462 -1.832859 1.311556 3.350661 -1.803633 -0.000000 16.740370 -2.049021 -5.426825 10.983037 3.084212 0.000000 9.617831 1.684974 4.246797 8.724972 3.874748 -0.000004 22.037354 7.501071 -0.000000 0.000000 0.000001 -4.570000 11.014862 -2.160840 -0.087121 21.774814 -6.484130 -48.736828 17.813596 50.048003 0.000456 97.197731 -0.000417 -18.422412 13.339267 -16.055201 -2.464787 -1.574004 2.681915 -7.341124 13.749651 7.412338 9.855782 -44.489134 -3.903162 -2.646267 -1.527820 1.527812 -0.115759 -14.513030 -28.973891 -1.994602 -1.151570 1.151578 0.000005 -0.000009 0.000001 -9.108294 -0.517882 2.259807 -0.124380 -2.384771 45.108888 4.500582 -4.654525 88.071198 1.723209 -3.618368 50.920119 -0.000000 0.000000 0.000000 -9.532490 0.000001 -0.000000 -0.761637 -2.932893 39.031061 5.133879 -4.632751 95.881670 1.739747 -3.631694 51.181377 -0.000000 0.000003 0.000004 -9.103585 -0.043113 -1.865099 0.154745 -4.068808 39.122678 6.509712 -4.273582 113.462843 2.549584 -4.153917 63.067351 0.000002 -0.000002 0.000002 -8.076702 -0.486728 -3.806293 -4.198896 -8.025498 44.637776 4.252899 -4.639630 85.014811 6.935966 -4.062635 119.322271 -0.000003 -0.000001 0.000000 4.570400 11.014701 -2.160815 0.172884 2.999569 -1.899977 -2.781117 -13.796911 -48.738263 -0.000012 -129.495797 -0.000018 -11.802750 -5.885670 19.299164 2.466092 -1.576214 2.681702 -6.141111 -11.690709 -6.761673 9.914078 42.595529 3.409824 2.647877 -1.528747 1.528742 -0.422766 8.108077 27.509101 1.998920 -1.154078 1.154077 0.000002 0.000000 0.000002 9.109303 -0.518012 2.259904 0.255276 3.378306 -45.814337 5.654092 5.847933 -88.067482 2.162099 4.544921 -50.866362 -0.000003 0.000004 0.000002 9.533401 0.000012 0.000005 -0.461511 3.841665 -39.722676 6.450756 5.820542 -95.892844 2.182846 4.561667 -51.127712 0.000002 0.000000 0.000002 9.104508 -0.043003 -1.865092 0.469688 4.966902 -39.799437 8.181078 5.368807 -113.502984 3.200438 5.218263 -63.022968 -0.000001 -0.000000 0.000005 8.077806 -0.486884 -3.806295 -3.762462 9.063784 -45.253797 5.342523 5.829176 -85.005311 8.716914 5.103543 -119.369181 -0.000000 0.000000 -0.000000 -8.207808 -6.751708 -1.599543 -24.677170 -14.622702 -30.943281 55.447827 -10.213283 -5.328958 -23.808778 -8.898779 23.048422 -1.421717 -0.000029 0.000004 0.000000 0.000000 -0.000000 8.207800 -6.751707 -1.599552 -38.148700 9.471865 17.573785 61.579777 -9.554636 0.842033 -25.910297 -15.537345 -8.988100 -1.594202 -0.000004 0.000003 0.000000 0.000001 0.000000 
-0.617322 87.672478 5.304229 0.603543 -38.457739 4.825900 0.000001 10.181559 0.131523 9.017772 12.330603 -4.677516 1.614291 3.475178 -1.606389 1.581786 3.470627 -1.578931 0.000001 16.740377 -2.049022 -4.951153 11.876910 2.479356 0.000002 9.617855 1.684973 4.516507 10.176982 2.129547 0.000001 22.037399 7.501075 -0.000000 0.000000 0.000000 -4.570001 11.014862 -2.160840 -0.149858 17.032467 -4.523631 -49.121628 18.160715 58.333832 0.000273 103.344280 -0.000218 -20.931593 14.304447 -19.204573 -2.464813 -1.573998 2.681920 -7.341127 13.749650 7.412334 9.855783 -44.489124 -3.903154 -2.646259 -1.527831 1.527830 -0.115758 -14.513032 -28.973891 -1.994602 -1.151584 1.151562 0.000002 -0.000005 0.000001 -9.108317 -0.517874 2.259808 -0.124381 -2.384774 45.108892 4.500586 -4.654525 88.071198 1.723206 -3.618369 50.920119 -0.000000 -0.000002 0.000001 -9.532520 0.000000 0.000007 -0.761637 -2.932896 39.031065 5.133878 -4.632752 95.881670 1.739747 -3.631691 51.181377 -0.000000 0.000004 -0.000000 -9.103615 -0.043109 -1.865096 0.154745 -4.068811 39.122678 6.509709 -4.273579 113.462843 2.549584 -4.153919 63.067351 -0.000001 -0.000000 0.000000 -8.076706 -0.486728 -3.806296 -4.198895 -8.025496 44.637783 4.252903 -4.639627 85.014811 6.935965 -4.062633 119.322271 0.000000 0.000000 -0.000000 4.570400 11.014692 -2.160816 0.208302 2.923763 -2.359765 -0.338336 -9.302574 -47.428099 0.000039 -131.297054 0.000028 -10.083609 -7.286272 17.983026 2.466107 -1.576211 2.681688 -6.141106 -11.690710 -6.761675 9.914092 42.595529 3.409821 2.647877 -1.528754 1.528759 -0.422767 8.108074 27.509096 1.998921 -1.154091 1.154076 -0.000000 0.000004 0.000001 9.109295 -0.518011 2.259885 0.255277 3.378305 -45.814341 5.654091 5.847932 -88.067482 2.162099 4.544919 -50.866365 0.000004 -0.000004 0.000002 9.533416 0.000012 -0.000006 -0.461510 3.841665 -39.722673 6.450756 5.820544 -95.892844 2.182846 4.561663 -51.127712 0.000001 -0.000003 -0.000001 9.104500 -0.043008 -1.865110 0.469686 4.966908 -39.799434 8.181073 5.368810 -113.502984 3.200438 5.218263 -63.022968 0.000001 0.000001 0.000000 8.077822 -0.486879 -3.806304 -3.762461 9.063784 -45.253797 5.342522 5.829175 -85.005317 8.716912 5.103540 -119.369167 0.000000 0.000000 -0.000000 -8.207806 -6.751699 -1.599542 -25.109657 -10.722684 -30.801899 55.390413 -10.242341 -5.155023 -23.016896 -7.533157 23.078419 -1.421717 -0.000031 0.000004 -0.000000 -0.000001 -0.000000 8.207799 -6.751705 -1.599545 -37.026356 11.435954 18.357288 61.407267 -9.551903 -0.184860 -26.139252 -13.655046 -8.218967 -1.594204 0.000006 0.000003 0.000000 0.000001 0.000000 
-0.006973 87.857788 5.382805 1.222517 -45.426676 5.823468 -0.000001 10.181549 0.131523 9.408112 13.249398 -4.826044 1.766229 3.654214 -1.546322 1.730744 3.652850 -1.520301 0.000001 16.740385 -2.049020 -4.829645 13.132056 2.051849 0.000001 9.617873 1.684969 5.218750 13.476923 -0.002299 -0.000003 22.037384 7.501074 0.000000 0.000000 -0.000000 -4.570000 11.014902 -2.160840 0.111136 12.433962 -3.381343 -50.528261 21.750478 67.173428 0.000196 106.120581 -0.000154 -20.661560 15.148897 -21.424903 -2.464796 -1.574011 2.681914 -7.341124 13.749647 7.412340 9.855782 -44.489134 -3.903162 -2.646267 -1.527793 1.527815 -0.115760 -14.513037 -28.973888 -1.994582 -1.151583 1.151579 -0.000000 0.000001 -0.000000 -9.108298 -0.517882 2.259811 -0.124381 -2.384771 45.108892 4.500584 -4.654526 88.071198 1.723207 -3.618368 50.920119 0.000000 0.000001 0.000001 -9.532497 0.000008 0.000003 -0.761637 -2.932895 39.031058 5.133879 -4.632750 95.881676 1.739746 -3.631691 51.181374 -0.000001 0.000002 -0.000000 -9.103608 -0.043109 -1.865094 0.154745 -4.068807 39.122678 6.509711 -4.273578 113.462843 2.549582 -4.153920 63.067358 -0.000001 0.000000 -0.000002 -8.076687 -0.486728 -3.806296 -4.198895 -8.025497 44.637776 4.252901 -4.639626 85.014811 6.935966 -4.062634 119.322271 0.000005 0.000001 0.000003 4.570401 11.014712 -2.160817 0.138329 3.549222 -2.349248 0.467865 -1.546953 -42.500647 0.000007 -133.005749 0.000003 -9.919199 -8.601379 14.809761 2.466107 -1.576218 2.681699 -6.141108 -11.690705 -6.761669 9.914087 42.595536 3.409824 2.647881 -1.528747 1.528746 -0.422768 8.108080 27.509097 1.998920 -1.154094 1.154080 -0.000001 -0.000004 0.000005 9.109283 -0.518011 2.259900 0.255278 3.378307 -45.814341 5.654090 5.847934 -88.067482 2.162098 4.544923 -50.866365 0.000002 -0.000002 0.000000 9.533404 0.000012 0.000003 -0.461508 3.841665 -39.722679 6.450755 5.820541 -95.892837 2.182846 4.561666 -51.127716 0.000000 -0.000003 -0.000002 9.104511 -0.042999 -1.865096 0.469689 4.966908 -39.799434 8.181074 5.368810 -113.502977 3.200438 5.218255 -63.022968 0.000001 -0.000000 0.000001 8.077806 -0.486894 -3.806298 -3.762459 9.063784 -45.253794 5.342523 5.829176 -85.005317 8.716915 5.103546 -119.369167 0.000001 0.000001 0.000002 -8.207804 -6.751705 -1.599538 -27.668144 -7.324969 -29.778983 54.849339 -8.242169 -7.236808 -22.006770 -5.783270 22.740070 -1.421717 -0.000031 0.000004 0.000000 -0.000000 -0.000000 8.207800 -6.751698 -1.599548 -35.471826 13.568856 19.192719 60.984621 -9.510813 -1.269273 -26.857219 -9.268614 -7.641839 -1.594201 0.000006 0.000004 0.000000 0.000001 0.000000 
